<svg xmlns="http://www.w3.org/2000/svg" viewBox="0 0 100 100"><g fill="#333333"><path d="M94.836 42.41c.159.614-.11 1.194-.303.987.607 1.2.144 1.276.972 1.359.449.787-.069 1.711-.448.807l.628 2.332.055-1.428c.71.359-.097 2.277.731 2.726l-.193-2.602.235.118c-.276-.58-.235-1.74-.166-2.153.124.048.297-.007.345.455-.33-3.16-1.297-.717-1.897-3.229.048.152.069.345.041.628zM96.037 39.477l-1.118-.876-.241-1.842c-.297.055-.863-1.16-.884-.214.09.159.262.47.304.745-.338-.014-.566-.573-.766-1.035-.228-.462-.462-.814-.683-.469.614 1.283.462 1.546 1.207 2.256.249 1.284.4 2.222.228 2.87.152.36.552.346.704.822-.028-.11-.048-.207-.076-.324l.945-.221c-.276-.38-.214-.794-.345-1.242 0 0 .11.11.249.296.138.18.317.421.496.663l.725.987c.393-.421.373-1.167.283-1.912-.124-.738-.373-1.47-.297-1.939-.517 1.229-.593-.745-.731 1.436z"/><path d="M94.788 41.727c0 .014.007.034.007.048 0-.014 0-.034-.007-.048zM20.047 71.3c.248.304.504.262.635.235 0 0-.166-.214-.414-.545-.124-.166-.27-.352-.421-.56-.131-.22-.276-.448-.42-.682l-1.146-1.863c-.152.234.241 1.49-.338.842-.042.469.772 1.345 1.145 1.304l-.497-.07c.925.615.538 1.726-.096 1.34l.055.068 1.642.594 1.6.538c-.503-.87-.979-.214-1.745-1.2zM90.2 55.761c0 .594.082.684.179.635a2.48 2.48 0 0 0-.18-.635zM22.538 72.75c-.02.02 1.021.255 1.021.255a3.685 3.685 0 0 0-1.021-.256zM11.305 72.446c-.028.013-.062.02-.083.062l.51.255c0-.007-.006-.007-.006-.007a6.498 6.498 0 0 0-.421-.31zM38.925 81.864c.09.014.16.028.263.048a1.243 1.243 0 0 0-.263-.048zM2.735 59.77l1.187 2.319c-.345-.256.041.904-.4.476.09.18.427 1.021.496.745l-.144-.497c1.11 1.056 1.138.221 2.449 2.043 0-.697-.152-1.146-.38-1.49-.193-.353-.462-.608-.73-.905-.111-.214-.187-.407-.27-.593l-1.594-1.739-.614-.359zM79.394 83.01l.02.062c.008-.035-.006-.049-.02-.062z"/><path d="M79.504 83.327l-.09-.262c-.006.186-.303.552.09.262zM21.951 72.818c.132-.069.339-.096.587-.069l-.731-.234c.048.076.096.193.145.303zM19.674 72.673l-1.11-1.297-.677-.31c.442.496 1.042 1.02 1.787 1.607zM36.938 80.519c2.83 1.235-1.07.524.124 1.352.835.304 1.318-.083 1.87-.007-1.235-.241-1.014-.552-.793-.876.228-.338.428-.635-.69-1.063.324-.303.787-.283 1.27-.193.49.076.98.29 1.317.531.594 1.042-.938.263-1.428.89.973.214.856.028 1.394-.241 1.366.78 3.23-.035 3.836 1.263 1.097.13 1.111-.318 1.794-.608.131-.4-.234-.565-.669-.71-.42-.187-.904-.394-1.014-.76.062.09.18.263.11.366l-.828-.393c.76.497-.324.773-.8.718-.338-.062-1.008-.193-.842-.4-.007.02.545-.035.545-.035-.559-.386-1.56.083-2.077-.559.028-.186.31-.18.386-.276-.91.242-1.649.042-2.85-.152l.94-.455c-1.174.414-3.071-.676-4.003-1.918.062.2.262.441.035.483-.842-.283-1.09-1.083-.518-1.25-.262.035-.566-.061-.842-.275-.276-.22-.559-.518-.848-.814-.573-.607-1.25-1.118-1.925-1.194 0 0-1.622-.076-3.402-.262a68.749 68.749 0 0 1-3.45-.683c.228.096.448.214.642.365-.187.87.09 1.042-1.063.787.918.442 1.104-.214 2.05.787-.615-.16-1.353.33-.442 1.366 1.545.862 2.96 1.387 4.52 1.539.737.103 1.476.2 2.228.296.724.11 1.511.138 2.25.304-.104.262.358.662.951 1.083.608.393 1.394.725 1.863 1.035-.634.345-1.49.166-2.318-.152.455.31 1.325.704 1.946 1.042l.731-.931z"/><path d="M29.638 78.325c.035.09.09.158.138.234-.007-.062-.041-.138-.138-.234zM34.02 80.256c-.021.014-.028.028-.042.049l.255.11c-.069-.055-.158-.117-.213-.159zM21.49 74.247c-.27-.049-.401-.138-.65-.207.118.069.249.172.394.255.159.055.262.062.255-.048zM21.807 73.087l.241-.055c-.034-.083-.062-.138-.097-.214-.11.056-.172.145-.144.27zM47.758 88.585l.344-.104c-.2 0-.29.042-.344.104z"/><path d="M39.795 82.692c-1.056-.331-.4.738-1.898.2l.421.207c-1.242.021-2.96-1.131-4.216-1.656.283-.2-.524-.766-.13-1.131-.836-.373-1.67-.746-2.367-.545-.414-.408-1.367-.58-1.829-1.201.07.442-1.477.207.207.994-.145-.056-.11.062-.248.006.683 1.098 1.538.677 2.387 1.194.359.58-1.11-.096-.683.31.621.208 1.421.815 2.146 1.222.759.345 1.408.517 1.621-.02.856.324.863.606 1.022.917.883-.193 2.097.304 3.146.807 1.042.525 1.994.76 2.194.007-.255-.041-.593-.096-.959-.159-.359-.09-.759-.158-1.173-.13l.359-1.022zM22.918 75.696c.04.062.117.13.144.186-.041-.062-.096-.124-.145-.186zM19.22 61.233l1.11.048c.476 1.132.945 1.836 1.228 2.581.152.373.304.731.463 1.125.186.38.434.766.717 1.228-.034.214-.248.034-.359-.055.47.607.877 1.476 1.436 2.18.558.704 1.117 1.346 1.628 1.642.235.421.91 1.518.338 1.38.228.118.476.256.642.483-.228.304-.49-.38-.732-.193.131.18.131.29.256.249-.49-.062-.663 1.124-1.85-.2.221-1.07.897.848 1.36-.076-.38-.428-.621-.138-.745-.104-.463-.573-.235-.731-.056-.828-.4-.041-.62-1.028-1.214-1.076-.918-1.097.628-.36.062-1.084 0 0-.276.028-.559.062a8.977 8.977 0 0 1-.552.049l-.649-1.435c-.73-.877-1.055-.608-1.42-.352-.339.241-.822.524-1.67-.58.593.083.883-1.283.538-2.456.379.641 1.442 1.594 1.683 2.518-.027-1.483 1.021 1.49 1.408.47-.67-.332-1.332-1.208-1.45-2.078l.194.208c-.276-.829-1.497-1.008-1.677-2.284-.234-.566.055-.56.304-.546-.297-.434-.635-.8-.435-.876zm.634 1.16c-.02.006.255.765.255.765.07-.234-.083-.49-.255-.766zM90.351 25.615c.035.104.07.221.104.318 0-.083-.049-.193-.104-.318zM11.201 27.002l.352-.524a4.094 4.094 0 0 0-.352.524zM17.598 13.616l.572-.828c-.283.27-.441.545-.572.828zM86.08 19.564l-.014-.028c-.048-.027-.09-.04-.138-.075l.152.103zM44.646 2.866c.151.062.324.11.545.131-.042-.09-.242-.13-.545-.13zM17.494 13.768a.207.207 0 0 1 .055-.028l.049-.124-.104.152zM5.985 31.611c-.02.145-.041.276-.055.435.048-.2.055-.324.055-.434zM8.841 31.763a2.245 2.245 0 0 0-.048.4l.049-.4zM3.729 53.195l.186.862c-.041-.428-.11-.676-.186-.862zM7.468 33.66c.028.063.049.125.076.166.014-.124-.013-.193-.076-.165zM90.234 31.508c-.007-.014-.02-.034-.02-.041l-.111.027.13.014zM92.297 32.73c.103.206.214.427.324.641a2.646 2.646 0 0 0-.324-.642zM56.914 4.246c.2.173.69.414.428.538.448-.145.49-.628-.428-.538zM83.251 31.087c.173.028.324.09.483.159-.255-.145-.47-.27-.483-.159zM83.734 31.246c.124.069.262.152.387.214a3.035 3.035 0 0 0-.387-.214zM51.339 11.884a.32.32 0 0 0-.214-.124c.034.131.11.152.214.124z"/><path d="M92.67 33.964c.255.028 1.807 2.822 1.014.297.69-.138.952 1.49 1.242 2.14.028-.553.504.123.71-.104-.179-.325-.455-.683-.627-1.25.214-.358.759.422.793 1.153.138-.96.828.925.787-.366-.456-1.262-1.056-2.277-1.601-3.174-.559-.897-1.187-1.649-2.09-2.242.2.317.4.648.607.973.172.345.338.69.483 1.042.296.697.53 1.38.6 2l-.76-.275c.022-.732-.137-1.263-.351-1.774-.207-.51-.483-.986-.766-1.594 0 0 .062.18.159.442.103.262.2.628.29 1 .179.732.365 1.47.365 1.47-.007 1.49-.441.642-.917-.331.09.255.144.497.062.593zM86.984 34.22v.048c.034.028.062.062.097.076l-.097-.124zM16.204 52.035l.241.18c-.11-.152-.186-.2-.241-.18zM89.033 31.563c-.014-.007-.014-.014 0 0zM16.218 47.005c.013.007.034.014.048.028a.111.111 0 0 0-.048-.028zM2.997 44.349c-.027.007-.055.014-.09.041.035.145.063.076.09-.041zM16.162 46.998c.021 0 .035 0 .056.007-.021-.007-.035-.013-.056-.007zM24 23.449s-.13-.014-.296.014c.014.075.097.09.297-.014zM19.999 26.892c-.042.014-.07.014-.11.034l.11-.034zM55.713 1.307a4.168 4.168 0 0 0-.773-.007c.235.02.49.034.773.007zM16.273 47.033zM28.12 15.755c-.034.055-.069.11-.097.159l.097-.034v-.125z"/><path d="M30.804 14.59c-.048.11-.048.2-.062.282.373-.373.994-.752 1.511-1.11.545-.311.973-.622.932-.967-.152.083-.683.235-1.173.31-.476.09-.89.139-.856-.117-.545.525-1.711.69-2 .994 1.227-.324.4.407-.16 1.007-.731.221-.172-.517-.786-.283L26.87 15.79l1.25-.821v.793c.027-.048.054-.083.082-.138 1.918-1.621.676.635 2.601-1.035zM30.742 14.872c-.11.11-.2.22-.255.338.193-.13.234-.234.255-.338zM40.126 11.802c.11-.049.235-.11.38-.2-.07.034-.235.124-.38.2zM17.342 69.962c.131-.138-.262-1.532-.676-1.27.173.387.352.773.531 1.166l.145.104zM67.153 10.38a5.388 5.388 0 0 0-.462-.186.583.583 0 0 0-.117.034c.069.11.407.138.58.152zM31.432 12.554c-.2.207-.262.338-.283.434a.855.855 0 0 0 .283-.434zM66.801 11.484c.138.2.345.49.304.69.373.187.738.076 1.16.18-.47-.125-.918-.47-1.464-.87zM68.299 12.36l-.035-.006c.014.007.028.007.035.007z"/><path d="M17.605 70.797c.09.09.186.179.282.269l-.213-.097c.138.304.241.621.4.91.096.077.2.166.31.284a.255.255 0 0 0-.186-.049l.145.283c.89.338 2.311 1.663 2.89 1.891.656.4 1.34.966 1.685 1.4-.339-.386-.87-.82-.946-.482.242.483.304.966.518 1.435.214.47.586.952 1.532 1.29l-.4-.359c-.208-.179-.394-.365-.394-.365s.145.069.393.138l.87.283 1.242.4c.317.897-1.235-.394-1.753-.338.876.434 1.353 1.166 1.787 1.794.414.648.877 1.055 1.498.966-.242.51-.642 1.373.414 2.09-.36-1.055.841.118.634-.876.518.007 1 .98 1.304.656l-.227.13c1.352 1.836 2.656 1.056 3.63 1.07 2.324.863 3.166 1.739 5.126 2.291-.055.373.13 1.532.931 1.787.518-.317 2.395-.124 2.719-.69-1.325-.62-1.29.228-2.187.152-.476-.897.138-.663-.656-1.387.642.621 3.498.607 4.182 1.477l-.318.006c.621.38.939.925 1.422 1.318.476.4 1.124.663 2.36.36l.579-.111c.29-.049.58-.152.58-.152-.063.062-.076.138-.11.193 1.828.159 1.303.863 3.366.394-.158.034-.062.11-.22.144 1.173.428 2.346-.455 3.201-.62.573.51-.09.538-.407.938 2.118.2 4.216-1.2 5.313-1.994 0 0 .083.007.207.02.124.014.297.021.455.014.332-.007.663-.007.663-.007-.69.442-1.539 1.125-1.242 1.408.71-.214.517-.449 1.545-.6-.096.38-.448.807-.848 1.345 2.27.028.2-1.304 1.932-.655.669-.166.924-.752.876-1.166 0 0 1.346.22 1.339.186-.028-.552 1.373-1.097 2.27-1.511.027-.256-.946-.256-1.222.062-.069-.421.821-.952 1.442-1.173.69.987 3.844-2.008 3.733-.483.663-.38 1.311-.932 2.015-1.422.683-.517 1.435-.973 2.07-1.538a67.642 67.642 0 0 0 1.767-1.594l.724-.704c.2-.242.373-.476.518-.683.676-.2 1.683-1.09 1.442-.173a8.017 8.017 0 0 0 1.104-1.228c.29-.414.483-.87.703-1.283a8.49 8.49 0 0 1 1.767-2.457c.11-.034-.042.187-.193.428-.166.228-.325.49-.152.58.386-.704.835-1.242 1.456-1.808.303-.29.62-.6.945-.966a9.34 9.34 0 0 0 .483-.607c.138-.235.27-.49.4-.773-.2.359-.069.593 0 .704-.172-.07.207-1.07.38-1.705.269-.255-.131.477.09.38 1.531-1.85 2.16-3.92 2.732-5.906.214-1.029.407-2.05.655-3.078.207-1.042.345-2.125.663-3.229-.338 1.263.241 1.946.531 2.042l.338-1.276c-.241-.58.062-1.518-.13-2.388.15-.075.358-.441.468-.006.552-1.222.414-2.291.145-3.395-.324-1.118-.697-2.257-.42-3.802 0 0 .324.959.641 1.918.324.994.642 1.987.642 1.987l.566-.931.29.897c.165.455.24.91.24.91.56-1.007-.4-2.007.18-2.09.145.234.07.766.366.807.269-1.007-.138-1.118-.214-1.884 1.125 2.064.586 6.141.29 8.315 0 .352-.193-.352-.29-.428-.186.87-.655 1.297-.745 2.429.283.807.469-.414.655-.938.387.179.29.448.194 1.07-.477 0-1.263 3.187-2.174 3.677-.462 1.573-.186 1.56.193 1.566.345-.007.649-.048-.172 1.387l-.994.6a27.03 27.03 0 0 1-.345 1.511c-.172.511-.38 1.028-.6 1.546-.47 1.021-.945 2.104-1.663 2.919l.255-.38c-.041-.393-.483-.09-.724.007-1.187 1.111-1.408 2.795-2.56 3.112-.359.897-.966 2.008-1.65 3.133-.724 1.076-1.586 2.097-2.27 2.967-.98-.256 1.622-2.395 1.857-3.395l-.2.22c-.131.125-.31.283-.483.442-.352.324-.711.649-.711.649.87-.808 1.007-1.339 1.118-2.201-1.228 1.09-1.187 1.918-2.215 3.174-.055-.256-.31-.221-.849.262l.2.566c-.034-.021-.124 0-.331.103l-2.077 1.98c.628-.165.939.2 1.546-.241-.407-.097.055-.531.655-.966-.296.676.78-.193.952.034-1.207.911-2.663 2.077-3.374 2.795l-.559-.255c-1.29.641-2.442 1.67-3.346 2.042l.131-.4c-1.573.67-2.974 1.677-4.54 1.85-1.2 1.048-2.85 2.242-3.912 3.166-.235.407-1.429.497-2.712.649-1.284.207-2.705.2-3.512.814-.124-.055 1.124-.676 1.663-1.014-1.16.076-1.96 1.028-2.422.393 2.615-.159-.221-.531.904-.897-1.187.172-2.422.552-2.995.793 1.96-.193-.6 1.09 1.36.518-.739.442-1.65.649-2.616.814-.966.145-1.98.214-2.918.117.02-.296-.214-.448-.904-.607l-.573.407c-.87-.124 1.697-.434-.048-.676-.911.31-2.277.2-3.492.014-1.214-.207-2.311-.324-2.822.297-1.27-.746 2.684-.145.738-1.118 1.25-.324 2.795.531 3.257-.186-1.173.13-.359-.608-1.09-.704l-1.318.234.276.07c-2.242.393-5.582-.67-8.225-1.463-1.214-.076-2.311-.028-3.45-.097a10.277 10.277 0 0 1-3.54-1.118c.484.007-.02-.345-.386-.676-.359-.345-.572-.676.394-.58-.98-.945-2.277-1.283-2.47-1.035.945.697.303.297 1.076.939-.752-.028-2.084-.856-2.491-1.387.234.172.18.062.297 0-1.063-.939-.773-.048-1.691-.525.035-.607-1.732-1.462-2.311-2.228 0 0-.394-.049-.753-.145l-.738-.18c.87.138-.855-1.007-.717-1.476-.932-.414-2.008-.497-2.898-1.725.593.283-.656-1.256-.311-1.594a4.985 4.985 0 0 0-1.173-1.297c-.4-.38-.835-.697-1.27-1.015-.848-.648-1.731-1.304-2.104-2.504.138 0 .649.234.386-.428-.4-.393-.855-1.249-1.207-1.732l.041.007-.027-.02c-.173-.235-.318-.36-.428-.311-.462-.318-.883-.532-1.339-.863-.428-.352-.91-.828-1.538-1.67-.428.373.496 1.884 1.041 2.436l.815.29c-.407.952 1.083 1.504 1.083 2.05-.731-.263-1.525-1.194-2.325-2.264-.739-1.104-1.422-2.374-2.174-3.236-.069.759.193 1.822.628 2.974.42 1.166 1.2 2.311 1.884 3.388l-.304-1.139.704 1.132-.166-1.408c.58 1.104 1.2 1.994 1.87 2.898-.807-1.048-.359-1.952-.096-1.242.372 1.505 1.18 1.022 1.8 1.925-.324-.524-.793-1.166-.227-.938.78 2.118 1.394 2.38 2.215 4.292.524-.794 1.745 1.78 2.49 1.47l-.558-.725s.428.255.848.517c.428.249.89.463.89.463.794 1.745-1.71-.525-.055 1.711 1.822 1.78 2.38 1.021 3.995 2.118-.427.021-1.02-.11-1.676-.372-.642-.283-1.297-.752-1.89-1.29l.551.855c-.586-.117-2.242-1.656-3.001-2.484.869.442.752.241.386-.166-.352-.427-.938-1.09-1.035-1.566-.497.242.366 1.07-.89.318.918.952 1.014 1.124 2.104 2.421-1.235-1.338-2.056-1.683-2.925-1.952-.421-.145-.835-.283-1.256-.56-.428-.268-.856-.69-1.249-1.42 1.097 1.048.283-.898.387-1.187-.47-.518-1.415-1.58-1.87-1.974l-.31.863c-.725-.663-.767-1.415-.898-2.132-.131-.725-.317-1.422-1.221-2.16-.545-.014.862 1.732.586 1.435-2.035-2.311-1.31-3.96-1.925-6.513-.262-.049-.738.2-1.442-.518.531.09.49-.621 1.194.2-.159-.876-.807-1.725-1.25-2.387.38 1.814-.875-.476-1.255-.718-.248-.931.538.131.863.635-.152-.766.193-1.815-.608-2.015.456-.159 1.926 1.594 2.519 2.822l-.248-.897c.448.51.427.642.676 1.532.034-.98.455-1.042.848-.98-.027.131-.13-.02-.158.11.13.732.462 1.194.641.932.842.338 0-1.076.16-1.656-.166-.324-.332-.648-.498-.966 0 0-.814-.71-1.628-1.414a34.373 34.373 0 0 1-1.504-1.546c-.628-1.539-.394-2.374-.283-3.63l-.6-.227c-.166-1.428-.187-2.774.648-1.98-.18.076-.103.255-.083.559a.4.4 0 0 1 .2.172c.035.02.07.035.11.055-.413-1.463-.668-2.373-.69-2.463 1.18 2.422 1.029 0 2.07.31 0 0-.04-.151-.11-.38a6.48 6.48 0 0 1-.2-.834c-.11-.614-.227-1.228-.227-1.228-.235 1.539-.483.062-.642-.476.559-.18-.138-2.029-.035-2.919l.11.069c.229-.814.25-2.236.153-3.27-.18.04-1.063-1.36-1.463-2.077-.442 1.78-.51.69-.89.8.034-.186.11-.524.041-.573-.117-.276-.262.338-.455.373.138 1.994.117 4.016.862 4.81.38-.587-.29-1.015-.02-1.678.234.49.317 1.035.324 1.656.02.628.048 1.325.076 2.126l-.442.545.338 1.594c-.283-.656-.752-.207-.931-1.919-.428.242.186 1.698.103 2.76a16.949 16.949 0 0 0 .683.462c-.372-.172-.11 2.07-.814.539l-.138-.4a6.218 6.218 0 0 1-.262-.883c-.166-.65-.324-1.298-.324-1.298l-.38.766-.234-2.25.345.518c-.573-3.608 1.09-1.07.503-4.671-.662-1.16-.793-2.429-.22-4.61-.076 1.622.496.235.841.884.552-1.56.02-2.187-.13-3.084.455-.338.813-.56.537.855.794.325.131-1.911 1.056-1.849.566-2.284.138-3.388-.103-4.588-.16-1.166-.18-2.477 1.373-4.934l.227.324c.573-1.718 1.194-3.008 1.822-4.25.71-1.194 1.456-2.332 2.215-3.836 0 0 .13-.11.331-.276.214-.152.497-.352.78-.56.517-.386 1.083-.779 1.083-.779-.241.552-.621 2.16.152 1.829-1.477.483-1.842 1.835-2.974 2.732.131.235.559-.152.8-.283-.42.69-.993.835-1.387 1.842.16.028.973-.855.608-.055 0 0-.297.249-.573.518-.283.262-.559.53-.559.53-.621 1.878.759 1.43-.442 3.354-.269-.565-.538-1.642-.255-2.497-.552.91.352-1.401-.331-.656.014 1.704-.932 2.084-1.18 4.175-.014-.263-.124-.373.014-.856l-1.304 2.677c.324-.276.227.338.138 1-.076.677-.07 1.422.262 1.374.241-.739.428-1.222.586-1.601.145-.38.228-.649.325-.938.186-.566.407-1.187 1.187-2.767-.221.986-.063 2.415.29 3.153-.035.02-.07.062-.118.152.407.69.745.248 1.766.614-.179-1.663.649-2.429 1.063-4.188-.373-.552-1.187.614-1.345 1.524 0 0 .013-.103.027-.255.014-.159.042-.359.09-.559l.165-.8.11.393s.484-.89.967-1.787c.241-.442.483-.89.67-1.221.172-.338.33-.538.33-.538-.358.676-.13 1.09-.082 1.559a4.346 4.346 0 0 1 1.028-1.214c-.552-.18-.87-.435-.594-.863.732-1.076 1.394-1.856 1.994-2.408a5.051 5.051 0 0 1 1.767-1.021c.048-.083.103-.18.145-.262-.725.006.241-2.077.29-3.099.434.414 1.172-.765 1.904-1.11-.242-.753-1.297-1.008-2.36-.67-.738 1.76-.193 1.173-.02 2.401l-1.215 2.616-.07-.828c-1.082.972-1.158 2.553-1.703 2.076 0-.441.2-.917.462-1.345.262-.428.517-.856.552-1.304l-.787.614c.435-1.766 1.056-.29 1.89-2.215-.924.228.07-.18.298-1.132-.78.29-2.05 3.009-2.512 1.898.145-.573.938-1.132 1.697-1.746.753-.628 1.58-1.207 1.663-2.097l.042.13c.759-.738 1.159-1.338 1.407-1.87.256-.524.394-.938.552-1.352.904-.372 1.518-1.566 2.243-2.263l.172.249s.228-.27.497-.497c.262-.235.518-.47.518-.47-.207.808-1.284 1.008-2.126 1.891l.483.318c-1.455.427-1.49 1.76-1.863 2.842.739-1.428 3.243-2.801 2.802-3.884-.007-.014 1.104-.159 1.104-.159l.234-.435c.835-.082.635.849-.317 1.794-.262.042-.393.07-.414-.069-.31.614-.442 1.318-1.635 2.229l.393-.752c-1.463 1.194-2.429 2.643-2.443 3.478.483-.463.966-.918 1.443-1.374.503-.427 1-.848 1.49-1.27.994-.834 1.897-1.731 2.919-2.456-.194-1.435.117-2.553-.242-3.746.331-.31.683-.649 1.077-.966.407-.297.834-.594 1.27-.87.869-.545 1.766-1.007 2.531-1.214l-.006.276c.696-.29 1.31-.607 1.766-.994.849-.069-.207.787.359.697l2.104-1.449c.07.552-1.828 1.463-2.705 1.94.152-.125.449-.367.31-.38-1.2.262-2.552 2.235-3.394 1.821-.42.414.704-1.09-.987-.11-1.29.428-1.235 1.27-1.207 1.539.131.22 1.911-.76 1.518-.083.821-.545.959-1.084 2.194-1.49-.828.544-1.628 1.745-2.325 1.628-1.284 1.538-.18 2.567.538 2.097-.455-.276 2.608-2.25.186-1.449.325-.531.925-1.07 1.587-1.6a76.925 76.925 0 0 1 1.974-1.54l-.007.132 1.6-.932c-.165.256-.613.621-.496.897l1.966-1.835c-.545.559-.303.545.152.393.462-.145 1.18-.365 1.525-.372.083-.525.925-1.187-.083-1.097-1.152.069-.51.455-1.421.828l1.056-1.166.138.02.6-.855c1.849-.628-.331 1.587 1.808.193l-.56-.656c2.83-.82 6.618-.745 8.557-1.331-.49.538-.6 1.304.2 1.628-.849.02-2.553.2-3.699.642-.13-.042.187-.366.704-.704a4.27 4.27 0 0 1 1.946-.6c-.428-.6-1.249-.283-1.973.055-.725.386-1.367.752-1.608.117-1.732.2-2.277.683-2.746 1.097-.463.449-.849.856-2.346.98.172.58-.67.559-.621 1.104.572.31 1.449-.02 2.429-.47.959-.49 2.104-.869 3.036-.958-.166.09-.49.262-.532.393 1.311-.159 1.794-.414 2.636-.862l-.124-.042c1.463-.876 1.062.27 2.022.38.345-.145 1.642-.166 1.38-.573 0 0 .434.076.869.159.435.076.862.172.862.172l-.144-.662c.952-.09 1.193.338 2.028-.11l.007-.601-1.207-.041c-.304-.007-.608-.021-.835-.028-.228-.007-.38.007-.38.007 1.2-.304.283-.6 1.635-.814-1.47.738 1.098.276 1.27.82l.98-.386-.249.173c.78.29.918-.304 1.829-.193-1.063-.36-1.801-.697-3.16-.214.973-.373 2.987-.89 3.484-.828 1.077-.2 1.808.29 2.788.414-1.911.145.531 1.842-3.16 1.235.069-.11.372-.07.483.007-.49-.842-2.243.069-3.009.407.221.428-.593.58.808.752-.477-.228 1.166-1.118 2.511-.628l-.255.932 1.904.207-.18.034c.67.649 2.05-.055 3.306.545.49-.096 1.628.062 2.47.09.842.014 1.394 0 .718-.67 1.042.85 2.222.387 3.546.6l-1.504-.786c2.084-.151 1.408.097 3.264-.49.076.304.345.621-.042.773 1.242.49 2.754 1.077 4.134 1.622 1.345.614 2.608 1.083 3.498 1.09.862.414 1.159 1 1.6 1.511.435.531.96 1.049 2.195 1.546.269.09.303-.152.435-.27.13-.124.365-.13.993.518.048.124-1.746-.428-.152.67 1.525.268 2.395 2.187 4.078 2.96.532.834 1.808 1.87 1.153 2.049-1.008-1.097-2.643-2.43-3.057-2.408.386-.145-.635-.897.414-.442-1.539-1.704-1.387-.6-2.83-2.042-.24.11.456 1.131.925 1.22-.455.608-3.38-2-2.484-.206 1.601 1.297 3.154.345 4.058 2.16-.842-.131-1.54-1.097-2.76-1l1.007 1.11s1.214.193 1.2.22l-.124.05c1.443 2.304 2.36.972 4.34 2.4-.565-1.414 1.201-.717.697-1.725 1.215 1.146 1.953 2.14 1.374 2.657-2.526-1.808-.725.4-3.181-1.056.11.518-1.229.345-.207 1.566 1.614.946.103-.855 1.51.304.021.124.042.255-.082.29.862.345.538.814 1.56 1.27l-.284-.076c.435 1.242 1.263.738 1.512 1.91.207-.696.814.29 1.518.629-.49-1-.145-2.029-1.594-3.74-.532.097-.621.38-1.394-.138l.993 1.021c-.262-.18-.51-.276-.765-.428l-.739-1.166c1.415 1.07 1.25.152 2.119.4.897 1.367.931.98 1.442 1.877-.594.338.98 3.147 1.462 4.968-.124-.255-.324-.559-.414-.731-1.041-.89-.006 1.07-.144 1.2l.78.642c-.132-.131-.401-.262-.27.131.78 1.028 1.311.656 1.994 1.774-.29.248-1.27-.47-1.09.338-.166.4-.573 1.538.435 2.89.193.042.428.415.648.863-.041-.055-.09-.13-.124-.152v1.18c-.904-.641-.366-1.897-1.387-2.47l-.58.18c-.31-.642-.965-1.408-1.435-1.656.373 1.014.615 1.145 1.256 2.18-.276.304-.897-.338-.986-.428l.386.014c-.083-.752-.449-1.173-.87-1.608-.4-.441-.917-.855-1.338-1.628-.117-.242.007-.124.138-.131-1.242-.904-1.256-2.574-2.76-3.202l.524.173c-.8-.587-2.27-1.767-3.953-2.643l-.187.145c.028.241-.414-.255-.58-.58-.4-.227-.786-.455-1.152-.662-.386-.186-.745-.359-1.07-.518.063.249.187.525.394.76.407-.028 1.284 1.324 1.608.73.214.808 1.435 1.319 1.608 1.891-.166-.503.062-.476.372-.317.304.166.69.462.877.428-.11.517.924 1.18.414 1.394.006.241-.014-.608-.525-.753-1.014-.53.794 1.788-.359 1.035 1.353 1.042 2.25 3.023 3.581 4.223l-.31-.924c.386.655 1.228 2.256 1.063 2.484-.311-.476-.56-1.09-1.008-1.663-.497.234.76 1.545.476 1.78l1.815 1.47-.373-.85c.649.353.911 2.368 1.311 3.734-.531-.255-.717-.752-.876-1.353-.159-.6-.27-1.324-.78-1.918-.752-.842-.434.918-1.055.09-.062.317.248.883.565 1.104v.428c-.986-.552-1.76-2.36-2.856-3.236.117.062.234.11.324.103-.22-1.014-.8-1.87-1.463-2.608.07.566.31.655.539.862-.138.125-.684-.614-1.035-.8.276.883-.283.38-.097.925-.462-.387-.607-.842-.973-1.442.014-.449.504.02.759-.249-.621-.455-.11-1.249-1.104-1.863.738 1.242-.87.18-1.345-.041l.117.207c-.594-.097-.835-.366-.752-.835.545.29.745.849 1 .428a2.966 2.966 0 0 0-.904-.808l.51.083-1.351-1.352c-.49.041-1.215.055-1.794.269-.042-.58-.739-.76-1.125-.945l.255.013c-.386-.772-1.877-1.835-2.25-1.6-.068-.145.187-.173.56-.166.365.02.82.11 1.193.131.739.062 1.153-.166-.58-1.421-1.303-.966-1.476.269-2.414.041 0 0 .103-.062.076-.172-.504-.47-.787-.194-1.346-.345.255.345.697.73.945.703-.213.125-.49-.09-.786-.345-.304-.241-.663-.476-.98-.455.96-.248-.973-.904-.331-.945-.47-.532-1.063-.925-1.69-1.063a4.28 4.28 0 0 0-1.664-.041c-.441-1.201-1.455-.621-2.69-1.463.2.103.641.117.903.317 1.015-.234-1.345-.8.083-.835-.297-.013-.131.27.173.29.503.09 1.02.104 1.014-.193 0 0-.22-.27-.476-.476l-.497-.442.462.02-1.573-1.31c-.09.09.042.283.104.386-.504-.255-1.035-.524-1.601-.69a36.815 36.815 0 0 0-1.725-.407c-.573-.124-1.139-.241-1.677-.359a18.76 18.76 0 0 1-1.56-.227c-.317.786-1.497.683-2.828.697-1.332.055-2.815-.083-3.568.462.4-.483.642-1.29.373-1.615.352-.062 1.097-.655 1.911-.483.125.263 1.097.6.435.863 2.229-.076-.248-.71.442-1.27-1.27.035-2.277.187-3.147.532-.87.345-1.6.71-2.353.931l-.055-.186s-1.131.386-1.125.428c.477-.014.725.262.69.448-.027.207-.324.331-.931.29l.138-.07c-.725-.268-2.07.387-3.126.484-.007-.02-.586.683-.586.683-1.021.207-1.311-.725-1.801-1.194-1.711.304-2.367 1.504-3.305 2.326-.318-.09-1.111-.007-1.636.117-.53.103-.869.096-.365-.435-.621.51-.614 1.235-.8 1.836-.097.296-.235.558-.532.752-.145.096-.338.165-.58.22a4.16 4.16 0 0 1-.862.152l.407-.71c-.517.345-1.063.759-1.615 1.18-.545.427-1.11.848-1.573 1.331-.945.939-1.835 1.642-2.38 1.87-.235-1.739-3.305.938-4.644.317.324.132-.255.939-.22 1.16-.27.041-.629.2-.663.676.89-.552.648 1.51 1.49-.283.09 1.408-.2 2.69-1.38 4.299l-.462-.387 1.097-1.173c-.455-.165.117-.766.2-1.145-.586.497-.904.69-1.104.731-.207.035-.303-.11-.393-.234-.18-.263-.318-.483-1.25.82.125.477.118.222-.254.974.214-.325-.076-.621-.463-.118l.028.752c-.69.207-.628-.303-.421-.752.193-.462.428-.924-.152-.738.366-1.29 1.525-3.243.71-3.388-1.552 1.525-.034 2.408-1.62 3.947l-.394.02c-.214.787.166 1.174.22 1.698-.178-.062-.392.028-.696.42.007.753-.103 1.291-.11 1.87-.007.574 0 1.132.13 1.83.187-.746.38-1.256.58-1.643.221-.372.476-.607.711-.849.49-.476.932-.972 1.553-2.428-.104.524-1.035 2.511-.394 3.022l-.503-.324c-.29.986-.394 2.021-1.111 3.042l.02-.828c-.165.835-.676 1.346-1.09 1.87-.359.545-.648 1.097-.4 1.877.207-.414.317-.766.331-1.07-.034.898-.476 1.85-.862 2.699l.496 2.083c-.282-.09-.6 1.056-.917.394a2.14 2.14 0 0 0-.345.848c-.014.27.02.51.083.739.117.455.324.848.338 1.242-.842 1.27-.104-1.215-.897-1.511a11.973 11.973 0 0 0-.483 2.835c.013.904.2 1.719.434 2.27.138-.386.256-.565.4-.538-.193.049-.179.821-.213 1.25l.372.303c-.303.704-.531.614-.786-.007-.16.697.703 1.497.158 2.222a4.135 4.135 0 0 1-.31-1.856c.041-.6.096-1.132-.035-1.45.125 1.25-.22 1.857-.434 2.581-.235.718-.497 1.56-.125 3.133-.179.062-.627-.449-.53.172.365 1.415.855.276 1.352.663-.435-1.035-.207-1.58.262-2.236l.33.262c-.15.056-.158.725-.275.939l.67.103c-.718-.02-1.091 1.118-.698 1.925.38-.924.394-.69 1.16-1.028.952 1.008-.587 1.429.483 2.546-.276-.034-.628-1.131-.628-.124.179.8.69.573 1 1.049-.731-.449-1.118-.193-1.987-.71-.345-1.464-.097-.594-.58-2.002l-.31 1.325c-.29-1.263-.814-.828-1.056-.897-.269 2.367 1.16 1.511 1.346 2.926.565.565-.249-1.311.434-.373.242 1.297.456.2 1.063 1.546l-.324-.16c-.221.532.276.85.53 1.305.36.462 1.76-1.207 2.554.842-.193-.042-.304-.042-.366-.02 0 0-1.352-.07-2.74-.215a47.497 47.497 0 0 1-1.917-.234c-.525-.076-.856-.138-.856-.138.4 1.22.883 2.518 1.297 3.912.58 1.31 1.05 2.753 1.656 4.14-.234.538-.71.193-1.117-.29-.387-.49-.746-1.083-.904-.897l-.435-1.366c.414-.097 1.394 2.594 1.497 1.132-.655-1.042-1.028-1.85-1.394-2.643a8.634 8.634 0 0 0-1.51-2.546c-.339.497-.028 1.228.344 2.035.194.4.366.835.545 1.25.187.413.31.834.31 1.269-.213-.621-.579-1.056-.903-1.504.497 1.38 1.035 2.877 1.697 4.43l.4.206c-.524-1-.703-1.787-.738-1.876.525 1.414 1.753 2.16 2.38 1.883l-.11-.234.463.33.428.912zm72.919-11.965a.703.703 0 0 0 .186.262c-.083-.076-.166-.034-.186-.262zm-81.24-15.38c-.097.504-.222 1-.311 1.504l-.187 1.518c-.11 1.014-.276 2.022-.303 3.008 1.538-3.574 2.746-5.699 2.45-.13l.123.365c.104-.731.27-1.98.2-3.174-.213-.49-.8-1.566-1.159-2.54-.4-.972-.772-1.862-.855-1.855-.449.296-.097.883-.318 1.51l.36-.206zm2.559-1.042c.317-1.049-.028-.862-.276-1.083-.02.393-.048.78-.069 1.166.09-.138.2-.187.345-.083zm-.566-1.07c-.027.125-.055.228-.103.276l.103-.275zm1.208 21.425c-.021-.041-.035-.062-.055-.104.069.256.138.511.213.78 0-.117-.034-.317-.158-.676zm-.035-2.353l-.566-.11c.042.241.09.49.132.745.2-.152.379-.297.434-.635zm.29-7.224c-.642-.373-.738-1.85-1.463-1.905-.186-.09-.241.235-.283.594 0 .4 0 .828.007 1.283.11.007.2.09.318.228.048-.456.227-.76.669-.621-.876 1.221.807.924.724 2.132.552.297.29-1.373.028-1.711zm64.322-35.639c-.014.07-.014.27-.007.525l-.918-.242c-1.138-1.007-1.51-2.712-3.229-2.65-.435-.524-.497-1.11-.593-1.62.269.192.51.385.697.565 2.083.462 2.29 1.145 2.4 1.704.111.573.09 1.118 1.65 1.718zM61.33 8.414a.334.334 0 0 0 .255-.104c-3.816.387-6.638.552-8.528.442.345.552 1.973.986 2.718 1.31 0-.013-.738.504-.738.525l-.386-.483-1.222.483c.304.414 1.256.38 1.85.71.055-.11 2.139-.482 2.78-.758l-1.573-.663c.414.263 2.629.373 3.505.47.042-.138-.276-.442-.662-.573-.387-.131-.821-.152-.973.152-.11-.463 1.649-.2.628-.835 1.421-.255 3.408.759 4.299 1.18l-.056.752c.911.628.96-.607 2.022.241-1.518-.4-.028.856-1.2.483.275.4-.242.746.903 1.104 1.29-.545.98.953 2.16.58.442.552-.842.248.214.904 1.49.145 1.594-.214 1.994-.814-1.16-.78-1.78.172-2.698-.456 0 0 .614-.048 1.242-.083l1.27-.069c-.297-.338-.573-.49-.828-.558.441.13.87.138 1.283.062.235-.042.449-.076.642-.097-1.187-.566-2.229-1.09-2.291-1.456l.304-.241c-.29-.525-1.132-.532-1.546-.421-1.138-.38-2.394-.325-2.498-.835l.525-.145c-.704-.22-1.104-.29-1.56-.373a41.9 41.9 0 0 1-1.835-.434zM17.77 22.8c.78.035 1.49.014 2.394-.338a5.593 5.593 0 0 0 1.436-.897c.524-.42 1.048-1.042 1.78-1.725l-.173.276c1.022-.386 1.553-1.228 2.167-2.125.635-.849 1.414-1.69 2.65-2.077-.67 1.097-.656 1.035-1.008 2.663l.773-1.028c.138.76.91-.262 1.656-.78l-.166 1.153c-.559.124-1.732.89-1.58 1.014.097-.124-.428-.055-1.09.159-.614.269-1.36.704-1.718 1.187.47.324 2.132-1.498 1.918-.062.449-.953.945-.525 1.608-1.29-.531.869.276.745-.028 1.476l1.153-1.097c.138.13-1.587 1.697-.138 1.47.324-.6 1.856-1.298 1.538-1.815l.131.13c1.063-.496-.02-.979 1.401-1.441-.138-.27-.49-.304-.904.027-.303.352-.159.704-.855 1.284-.297-.07-.07-.228.117-.387.193-.144.345-.317-.145-.483-.504-.165-1.746 1.725-1.739.594l1.049-.621c-.331-.531.442-.98.159-1.366.538-.587 1.497-.373 1.897-1.229.09-.503-.766-.841.518-1.235 1.359.366 3.884-1.166 4.94-1.573l.793-.697c-.207-.331-1.759.683-1.331.014l1.414-.67-.034.263c.503-.117.91-.566 1.325-.814-.345.538-1.436.786-1.029 1.297.718-.117.877.02 1.477-.255-.124.076-.228.165-.186.248 1.463-.097 1.159-1.021 1.47-1.311 1.248-1.16-1.65-.352-1.657-1.021 0 0 4.258-1.484 4.292-1.353-.345.256-.683.518-.497.746 1.125.117.118.476 1.608.214-.117-.414.331-.621.952-.8.31-.09.656-.187.987-.284.338-.09.662-.165.925-.303.538.324.641.386-.463.455.18.545 1.629.262 2.153.283.297-.152.814-.262 1.146-.4-.449-.249-.27-.628.71-.883l.055-.11c-.8-.077-1.835-.187-2.8-.25-.967-.048-1.864-.034-2.326.36l.255-.318c-1.953-.165-3.87 1.532-4.906.8-.014-.427-.386 0-.497-.593l-1.242.8.214-.338s-.566.18-1.138.366c-.573.159-1.118.428-1.118.428l.02-.131a55.508 55.508 0 0 0-2.07 2.194c.097.242.194.297-.075.6a2.458 2.458 0 0 1-.773.442c-.531.172-1.028-.007-1.718.159l.952-.497c.242-.124.476-.249.656-.338.179-.097.303-.145.303-.145-.007-.47-.359-.863-1.463-.663.394-.207.428-.607-.096-.414-.007.132-1.194.89-.566.98-.904.532-2.277.856-3.636 1.546-.69.324-1.408.683-2.084 1.11a8.505 8.505 0 0 0-1.767 1.684c1.546-1.794-1.849.642.11-1.055-.938.255-1.151.634-1.303 1.062-.152.442-.297.89-.987 1.477-.283-.097.745-.642.787-1.263-1.304.821-2.022 1.98-2.767 3.022-.739 1.05-1.27 2.236-2.346 3.216l-.504-.27c-.338.442-.655.98-.966 1.546zm-2.643 5.113c-.22.51-.49 1-.683 1.539.028-.049.056-.09.083-.138l-.317 1.683c.635-.814 1.449-1.097 1.104.263-.152-.207-.58.034-.49-.463-.697.683-1.898 2.422-.89 2.27.055-1.932 1.152.07 1.221-1.421.18.904-.38 1.449-.435 2.173-.145-.848-1.028-.255-1.6.725-.042.504-.615 1.69-.677 2.512.587-.11.628.614 1.194-.546a3.277 3.277 0 0 1-.172.863c-.076.331-.207.69-.435 1.049-.007-.338.076-.904-.11-.918-.58.38-.718.994-1.001 1.277l-.124.82a.53.53 0 0 1 .22-.151l.214.98c.07-1.222.366-.483.656-.4-.573-.166-.27.73-.352 1.124l.842-.717c.103.241-.104.572-.249.841-.124.27-.186.476.138.428.635-1.746.753-2.422.966-4.092l-.641.518c.193-1.932 1.173-.856 1.835-2.829-.193-1.014 1.235-2.884.435-3.319.145.359 1.263-.842 1.263-1.663-.304-1.076.903-3.277.193-2.836-.36.573-.435 1.573-1.18 1.774l.538-1.215-.842.518c.373-.304-.027-.497-.704-.649zM5.185 58.432v.062l-.007-.07.007.008z"/><path d="M90.51 32.274c.386.262.655 1.228 1.007.876-.22.104-.393-.31-.545-.648-.172-.332-.338-.594-.462-.228zM90.51 33.543c.131.021.29-.096.455.318l-.531-1.09.076.772zM87.819 35.827c.538.414.855.697 1.138 1.56-1.007.676-.828-1.29-2-1.29.22.772.62 1.186 1.041 1.573.387.393.76.772.98 1.414.138-.38.173-1.29-.09-2.035-.255-.739-.641-1.353-1.07-1.222zM86.177 35.69l.552.73.034-.103-.552-.738zM81.712 12.478c.16-.352-.634-.49-.986-.642.227.2.503.531.986.642zM85.783 82.63s.345-.414.87-1.035c.51-.628 1.228-1.428 1.863-2.29a250.991 250.991 0 0 0 2.415-3.547c-.683 1.02-1.366 1.987-2.146 3.105-.373.572-.828 1.124-1.339 1.732-.503.62-1.048 1.29-1.663 2.035zM55.623 4.212c1.098-.09 1.912-.16 2.74-.276.828-.083 1.676-.207 2.801-.035-1.394-.676-2.45-.49-3.395-.359-.959.145-1.821.283-3.036-.124l.89.794zM56.707 1.362c.296.697-1.843.662-1.553 1.207 1.532-.082.773-.641 2.153-.386l-.6-.821zM63.241 14.555l-.614.158.442.028zM46.226 1.97l.234-.194-1.173-.055zM46.695 1.59s-.235.172-.235.179l.235-.18zM62.137 15.742l.67.407.462-.173zM56.003 10.615l.78-.104c-.159.021-1.153-.42-.78.104zM39.257 2.99l-1.022.538.132.042 1.014-.538zM50.159 12.305c.51.51-1.415.214-.387.642.89-.131.525-.393.387-.642zM38.67 10.684a.874.874 0 0 0-.345.214c.131-.076.249-.152.345-.214zM38.67 10.684c.393-.145.842-.097 1.083-.304-.586-.11-.73.076-1.083.304zM34.282 12.581l.359-.13c-.235.406-.09.289.13-.05.353-.192.263-.337.263-.461.041-.097.09-.194.138-.297a9.368 9.368 0 0 0-.22.324c-.567.262-.898.456-.67.614zM13.396 17.542c1.29-1.138 1.655-1.393 1.904-1.048 1.173-1.09.483-1.394 1.028-2.236-1.18 1.408-1.573 1.553-2.932 3.284zM16.335 14.258c.131-.159.276-.29.435-.462-.2.172-.345.31-.435.462zM40.802 14.872s-.138.207-.269.428c-.13.214-.255.435-.255.435l.235-.18s.282-.697.29-.683zM11.691 19.426c.214-.241.504-.655.766-.766-.276-.338-.98 1.008-.766.766zM21.786 20.102c.262.055.828-.669 1.173-.848-.421.324-1.318.055-1.173.848zM10.408 24.387c.18-.248.662-.504.849-.145.055-.483-.249-1.4-.85.145zM19.964 21.993l.242-.055.462-.911zM26.643 23.821c.373-1.007-1.98.18-1.028-1.249-1.918 1.18.58.352-.559 1.463.725-.593 1.518-.414 1.587-.214zM25.05 24.035c-.11.083-.221.18-.325.297.131-.11.242-.207.325-.297zM14.762 34.213c.007-.166-.014-.283-.035-.4-.007.13 0 .262.035.4zM22.152 28.182l.276-1.608c-.097.546-.518 1.298-.821 1.946-.332.635-.408 1.256-.076 1.38.49-.6.938-1.407.897-1.918l-.276.2zM2.632 41.044l-.16-.897-.248 1.042c.16-.276.608.352.408-.145zM2.176 41.396l.048-.2a.523.523 0 0 0-.048.2zM15.693 31.35c.27-.442.428-.822.518-1.305-.214.104-.883 1.215-.518 1.304zM3.094 47.047l-.055-1.38-.021 1.504zM1.948 53.553l-.124.256s.076.29.18.572c.11.283.214.566.214.566l.103-.262s-.117-.276-.207-.559l-.166-.573zM16.473 46.198c.083-.67-.449-1.263-.628-1.104 0 0-.014.083-.028.207-.02.124-.041.29-.034.455l-.014.67c.607-.29-.028-.373.207-1.132-.034.007.497.904.497.904zM28.168 91.855c-.538.138-2.139-1.097-2.028-1.462.31 0 1.297.42.848-.125h-1.835c-1.442-1.587 2.029-.227 3.036-.02-.856-.587-1.49-.828-2.153-1.07-.662-.234-1.366-.462-2.242-1.152.483.455.662.918.855 1.263-.33.641-1.856-.884-3.09-1.74.593.808 0 .677-.732.456a.6.6 0 0 0-.283-.083 3.501 3.501 0 0 0-.255-.069l.144.11c-.055.05-.082.146-.055.325 1.153.628 1.615 1.67 2.291 2.18-.007-.71.566-.29 1.352.228.787.525 1.725 1.242 2.264 1.366l1.09.532.386.227c.021.152-.158.221-.862.056.572.158 2.304 1.02 2.29.641l1.974.939c.497.234.987.476 1.38.6.386.145.642.235.642.235.11.09.22.186.283.296.165-.014.213-.055.213-.11 0 0 1.125.4 2.802 1.007.856.256 1.87.497 2.953.773 1.083.283 2.236.573 3.423.718 1.18.172 2.352.345 3.456.503 1.111.056 2.146.11 3.036.16.89.034 1.629.075 2.146.082.518-.028.815-.042.815-.042-.939-.013-1.74-.338-2.691-.496 1.448-.656-1.553-.207-1.098-.877.649-.214 1.567-.096 2.112.097.207-.338-.566-.683-.462-1.09-1.132-.27-1.795 0-2.478.29-.683.303-1.38.614-2.49.296.144-.4.869-.655-.587-.82l.38-.035c-2.409.096-1.636-1.187-3.313-.325l.16-.58c-1.119.187-3.14-.33-4.3-.551l.104-.09c-1.663-.172-2.111-.338-2.587-.517-.47-.214-1.001-.4-2.767-1l.283.013c.165.014.4.014.634.007l.925-.028c-1.077-.69-1.622-.138-2.422-.607.103-.076.103-.566.91-.297 0 0-1.117-.241-2.228-.476-.566-.124-1.132-.255-1.552-.345-.428-.096-.69-.2-.69-.2-1.139-.166-.014.497.013.807z"/><path d="M23.787 88.026a4.169 4.169 0 0 0-.649-.51c.235.2.449.358.649.51zM53.65 98.604l-1.332.069c.414.02.85.006 1.332-.07zM17.915 84.9c.38.766-.745-.09-1.007-.02l2.16 1.945c.144-.186.524-.186.613-.386L17.915 84.9zM19.412 87.722c.173-.048.51.021.87.124 0 0-.332-.227-.628-.49-.297-.262-.594-.53-.594-.53-.096.137-.069.379.352.896zM27.127 78.076l.303.249.587.213s-.228-.11-.456-.214a3.463 3.463 0 0 1-.435-.248zM31.605 82.471c-.228-.552-1.139-.793-1.456-.876.904.538.448.414 1.456.876zM32.522 78.642l.89.303-.041-.103zM62.827 94.905l.573-.186a3.086 3.086 0 0 0-.573.186z"/><path d="M52.401 96.872c3.009.531-1.946.655-1.014 1.463l1.649-.36-.131.235 2.015-.18c-.442-.372-.752-.379-.683-.8 2.67-.006.869.511 2.89.794l2.988-.531-.22.158c.248-.048.351-.117.427-.2 0 0 .16-.027.428-.083.276-.04.67-.124 1.125-.262.918-.262 2.146-.607 3.374-.959 1.228-.338 2.387-.89 3.284-1.214l1.477-.587c1.58-.98-1.221-.317-.207-1.373-1.966.732-4.975 1.387-4.947 2.146.034-.131.103-.38-.331-.373l-.994.966 1.187-.082c-.504.483-1.746.945-2.967 1.242-1.222.283-2.43.262-2.815.124 2.2-.614.938-1.097 4.057-1.435-.187-.166-.821-.387-.18-.67-1.704.628-3.415.815-5.12 1.09-1.69.366-3.422.415-5.292.89zM84.942 82.589l.034.076c.014-.076.007-.11-.034-.076zM83.983 83.34l-.76 1.795 2.015-1.925-.255-.545c-.069.269-.587 1.131-1.014 1.228l.013-.552zM81.968 86.874c.973-1.111.434-1.594-.325-1.298.76-1.104.987.083 1.18-1.048-.352-.345-1.324.952-1.573 1.242l.718 1.104zM72.784 92.325l.241-.421-.931.365zM73.025 91.904l.925-.366c-.159-.152-.318-.304-.525-.359l-.4.725zM76.289 90.386c.386-.173.8-.387 1.297-.67l-1.297.67zM75.226 90.827l.076.055.987-.496c-.38.165-.718.31-1.063.441zM73.95 91.531c.366.352.78.71 1.96-.166l-.608-.476s-1.338.677-1.352.642zM38.153 82.34l.883.042-.055-.097-.884-.041zM42.672 84.23c.221-.027.4-.068.56-.123-.229 0-.415.027-.56.124z"/><path d="M46.709 81.747c.848.614-1.36.42.317.897.104.462-.8.89-1.594.552.138-.4.842-.145.407-.635-.62.393-.773.042-.697.683-1 .27-1.186.621-1.918.863.304 0 .656.103 1.07.193.414.076.87.166 1.331.248.932.138 1.912.345 2.691-.062.87-.71.449-1.76.545-2.836-.048-.145-.552-.207-1.048-.269-.504-.055-1.015.02-1.104.366zM45.487 80.477c-.393-.11-.53-.076-.786-.062-.014.387.455.042.786.062zM55.734 88.971c.083-.165.973-.497.738-.731 0 0-1.352.414-1.36.366.339.02.47.186.622.365z"/><path d="M54.513 88.723l.607-.11c-.152-.008-.338.02-.607.11zM55.81 89.06l-.076-.082c-.014.035-.007.062.076.083zM79.87 88.336c.159.256.662-.345.91-.641-.261.165-.668.345-.91.641zM95.754 65.45l.448-.54c-.214.173-.324.263-.448.54zM90.137 54.568c-.055-.02-.096-.07-.13-.131a.27.27 0 0 0 .13.13zM90.006 54.437c-.186-.394.387-1.477-.014-1.925l.11.062-.186-.773c-.006.352-.013.904-.027 1.421-.042.504-.035.987.117 1.215z"/></g></svg>