<?xml version="1.0" standalone="no"?>
<!DOCTYPE svg PUBLIC "-//W3C//DTD SVG 20010904//EN"
 "http://www.w3.org/TR/2001/REC-SVG-20010904/DTD/svg10.dtd">
<svg version="1.0" xmlns="http://www.w3.org/2000/svg"
 width="144.000000pt" height="144.000000pt" viewBox="0 0 144.000000 144.000000"
 preserveAspectRatio="xMidYMid meet">
<metadata>
Created by potrace 1.10, written by Peter Selinger 2001-2011
</metadata>
<g transform="translate(0.000000,144.000000) scale(0.100000,-0.100000)"
fill="#474343" stroke="none">
<path d="M596 1225 c-125 -28 -230 -95 -308 -200 -25 -33 -53 -76 -63 -95 -25
-52 -55 -178 -55 -235 1 -63 30 -176 67 -252 35 -72 150 -189 219 -222 27 -12
57 -27 66 -32 26 -13 34 -11 45 13 22 49 -11 115 -46 94 -5 -4 -31 2 -57 12
-37 15 -52 28 -70 63 -13 24 -36 54 -50 65 -15 12 -23 27 -20 33 15 24 50 10
96 -41 43 -46 52 -51 92 -52 53 -1 78 16 78 55 0 25 -5 29 -37 35 -104 19
-164 83 -181 196 -11 70 -2 134 25 173 7 11 13 46 13 81 0 34 3 69 6 78 9 24
69 20 121 -10 39 -21 50 -23 76 -15 39 14 158 14 193 0 24 -8 37 -6 80 16 33
17 64 25 86 23 l33 -3 3 -75 c2 -43 9 -81 16 -90 27 -31 38 -109 25 -180 -19
-110 -84 -178 -183 -194 l-39 -7 8 -37 c5 -20 9 -77 11 -126 3 -115 10 -124
84 -89 60 29 120 72 163 118 38 41 97 130 97 147 0 8 5 19 11 25 16 16 39 140
39 208 -1 83 -39 228 -68 257 -7 7 -12 18 -12 26 0 20 -150 165 -193 185 -79
37 -104 45 -163 56 -74 14 -131 12 -208 -4z"/>
</g>
</svg>
