 <svg  version="1.0" xmlns="http://www.w3.org/2000/svg"  width="144.000000pt" height="144.000000pt" viewBox="0 0 144.000000 144.000000"  preserveAspectRatio="xMidYMid meet">  <g transform="translate(0.000000,144.000000) scale(0.100000,-0.100000)" fill="#422bf3" stroke="none"> <path d="M470 1195 c-102 -21 -240 -109 -240 -151 0 -7 -6 -28 -14 -46 -63 -148 -103 -316 -112 -475 l-7 -112 48 -46 c59 -56 152 -100 226 -108 l56 -7 31 44 32 44 -36 21 c-19 12 -38 21 -42 21 -15 1 -66 49 -59 56 4 4 30 -5 59 -20 101 -53 161 -66 308 -66 99 0 148 4 185 16 68 23 68 23 88 34 9 5 25 15 35 20 33 19 43 22 49 16 8 -8 -44 -56 -61 -56 -8 0 -19 -7 -26 -15 -7 -8 -19 -15 -26 -15 -20 0 -17 -13 9 -53 27 -42 42 -48 110 -37 80 11 148 47 213 111 41 41 44 46 44 98 0 152 -66 421 -141 575 -24 50 -96 114 -130 115 -8 1 -20 6 -26 12 -11 11 -133 42 -140 35 -11 -10 12 -28 73 -56 64 -30 82 -50 44 -50 -10 0 -34 6 -52 14 -64 27 -167 46 -246 46 -79 0 -247 -32 -266 -51 -15 -14 -68 -11 -64 4 3 6 13 14 24 16 10 1 26 9 34 16 8 7 27 15 41 19 22 5 47 33 37 41 -2 1 -28 -4 -58 -10z m84 -416 c51 -18 71 -55 71 -127 0 -59 -2 -66 -33 -93 -40 -36 -86 -38 -122 -6 -71 61 -64 170 13 217 38 23 33 23 71 9z m390 -3 c50 -21 66 -51 66 -122 0 -58 -2 -64 -35 -93 -58 -50 -112 -39 -158 31 -37 58 -7 156 57 184 38 16 31 16 70 0z"/> </g> </svg> 